<?xml version="1.0" encoding="UTF-8"?>
<svg id="Layer_1" xmlns="http://www.w3.org/2000/svg" version="1.1" viewBox="0 0 1632 250">
  <!-- Generator: Adobe Illustrator 30.1.0, SVG Export Plug-In . SVG Version: 2.1.1 Build 136)  -->
  <defs>
    <linearGradient id="logoGradient" x1="0%" y1="0%" x2="100%" y2="100%" gradientUnits="userSpaceOnUse">
      <stop offset="0%" style="stop-color:#4a5a6a;stop-opacity:1" />
      <stop offset="25%" style="stop-color:#6a8a7a;stop-opacity:1" />
      <stop offset="50%" style="stop-color:#8aa5c5;stop-opacity:1" />
      <stop offset="75%" style="stop-color:#c5a5a5;stop-opacity:1" />
      <stop offset="100%" style="stop-color:#8a8a8a;stop-opacity:1" />
    </linearGradient>
    <style>
      .st0 {
        fill: url(#logoGradient);
      }
    </style>
  </defs>
  <path class="st0" d="M1302.73,25.52l-22.76,2.13c-13.77,1.29-23.58,11.34-23.58,25.41v151.15c-.01,9.43,5.88,16.51,14.24,19.66,17.16,6.47,35.84,2.49,35.28,6.14-.13.87-2.37,2.42-3.28,2.42l-226.38-.87c-16.14-.17-13.56-2.27-26.08-12.45l-112.34-91.28c-2.32-1.88-4.29-3.12-5.7-5.91l62.99-.46c6.29-.05,12.96-1.13,19.22-1.84,22.04-2.48,52.42-12.45,55.6-37.76,2-15.94-4.4-30.84-18.72-38.99-13.31-7.58-29.14-12.99-45.38-13.03l-123.06-.34c-12.04-.03-19.27,10.08-19.26,20.95l.14,151.32c.01,11.9,8.56,20.49,19.3,23.42,15.69,4.29,25.4,1.68,31.91,3.94.72.25-.3,3.11-1.42,3.1l-140.95-.13c-1.11,0-2.13-2.95-1.43-3.18,6.57-2.13,24.21,1.1,40.1-7.59,6.18-3.38,11.06-11.9,11.06-19.8l.03-150.93c0-7.9-4.47-16.76-11.43-19.45-17.14-6.63-35.44-7.07-53.06-2.55-11.49,2.95-19.45,13.11-19.54,25.17l-.6,82.93c-.23,31.69-9.82,57.25-36.66,75.16-15.14,10.1-31.67,16.38-49.61,20.47-17.17,3.92-33.95,6.29-51.56,6.39l-21.32.13c-30.98.19-60.89-3.97-90.18-14.39-27.44-9.76-50.14-27.34-55.01-57.59-.78-4.88-2.18-10.25-2.19-15.12l-.19-100c-.02-9.97-5.71-18.79-15.37-22.09-12.86-4.39-26.67-2.83-34.34-5.17-.66-.2,1.1-2.93,2.14-2.9l135.64.02c11.6,3.85-23.32,5.75-24.9,5.96-12.16,1.61-22.67,11.39-22.69,24.53l-.15,98.44c-.01,8.03,2.57,16.44,4.99,23.68,10.17,30.46,42.46,44.45,71.93,49.22,39.95,6.47,93.87,5.59,130.36-13.26,15.55-8.03,28.81-20.04,35.53-36.55,4.37-10.75,7.73-22.67,7.79-34.52l.44-82.44c.04-7.12-2.89-14.88-7.41-19.99-5.17-5.85-13.08-8.48-20.84-9.17l-21.53-1.91c-1.1-.1-1.32-4.04-.31-4.01l341.45.37c6.43-.01,12.55.76,18.81,1.27,23.24,1.88,51.12,8.12,69.24,22.97s18.9,40.13,2.79,56.21c-5.33,5.32-12.02,9.4-19.05,12.42-41.57,17.84-81.36,11.4-88.55,14.43-.33.14.11,1.27,1.09,2.05l94.39,75.06c27.69,22.02,57.97,23.5,91.18,21.21,7.85-.54,15.89-3.2,22.16-7.88,4.97-3.71,9.22-11.28,9.22-18.11l-.04-147.17c0-7.14-3.66-14.57-7.92-19.53-9.46-11.03-36.14-8.04-43.2-10.33-.73-.24,1.1-3.12,2.22-3.1l137.42.13c.84-.02,2.91,1.84,2.52,2.25-.58.61-2.15,1.6-3.2,1.7Z"/>
  <path class="st0" d="M1562.71,220.23c-54.52,21.07-112.84,21.01-169.92,11.6-22.78-3.76-43.9-9.92-65.99-16.55-2.75-.83-3.81-4.4-4.01-7.02,0,0-2.61-34.15-2.88-42.79l7.75.23c5.28,27.92,34.77,45.15,59.97,52.4,34.67,9.97,70.33,12.46,106.39,8.29,10.09-1.17,19.58-3.31,29.3-5.71,11.66-2.88,22.31-8.32,31.76-15.31,12.54-9.27,17.61-25.45,9.28-39.19-10.32-17.04-37.82-23.37-56.82-26.64l-43.6-7.5-53.32-8c-17.85-2.68-34.57-7.11-51.17-13.77-10.23-4.1-19.68-10.44-24.96-20.09-12.66-23.13,1.53-45.92,24.09-56.6,13.35-6.32,26.98-10.74,41.64-13.3,58.96-10.32,116.65-3.57,174.84,10.36l.67,37.27c-17.77,4.57,6.77-11.79-39.89-31.58-37.7-15.99-112.91-16.87-150.26-.42-7.95,3.5-15.18,9.17-18.67,17.18-4.42,10.16.38,21.37,9.75,27.27,7.6,4.79,16.27,8.29,25.24,10.74,53.42,14.58,99.14,14.5,151.27,28.85,22.72,6.25,51.16,18.83,53.61,45.36,1.38,14.92-3.76,28.32-15.38,37.67-8.57,6.89-18.09,13.17-28.68,17.26Z"/>
  <path class="st0" d="M168.86,123.11c-6.44,6.86-60.54,72.24-60.54,72.24-5.22,6.34-6.83,21.56,4.07,25.97,9.26,3.74,19.19,6.43,29.76,6.6l24.19.4c.87.01.95,4.63.05,4.6l-145.18-.73c-1.57.02-2.94-.06-3.85-.24s.08-3.83,1.44-3.8c30.49.66,54.59-11.18,74.72-35.03L235.62,25.49c2.64-3.09,4.78-5.53,8.26-5.62,4.25-.12,6.14,1.83,8.93,5.02l160.46,183.29c14.62,16.12,33.21,19.76,53.29,21.08,1.28.08,2.22,3.8,1.39,3.93l-155-.75c-1.23.02-3.41-2.06-2.83-2.61s2.42-1.76,3.35-1.74c10.75.14,46.32.62,50.56-11.41,1.56-4.41.42-9.8-2.52-13.18l-69.69-80.31-122.97-.08ZM284.99,115.45l-41.88-48.68-14.51-15.9-16.64,19.51-36.97,44.99,110,.08Z"/>
</svg>