<?xml version="1.0" encoding="UTF-8"?>
<svg id="Layer_1" xmlns="http://www.w3.org/2000/svg" version="1.1" viewBox="0 0 289 137">
  <!-- Generator: Adobe Illustrator 30.1.0, SVG Export Plug-In . SVG Version: 2.1.1 Build 136)  -->
  <defs>
    <style>
      .st0 {
        fill: #5b534c;
      }
    </style>
  </defs>
  <path class="st0" d="M204.79,75.67c0-9.5,7.49-17.12,16.99-17.12s16.99,7.62,16.99,17.12c0,.87-.07,1.74-.2,2.54h-26.02c.8,4.21,4.61,7.62,9.43,7.62,3.41,0,6.15-1.07,7.56-3.21h8.76c-2.27,6.09-8.76,10.17-16.32,10.17-9.7,0-17.19-7.62-17.19-17.12ZM230.74,71.93c-1-3.88-4.61-6.55-8.96-6.55s-7.96,2.68-8.96,6.55h17.92Z"/>
  <path class="st0" d="M191.34,45.18h7.36v13.78h6.34v6.96h-6.34v26.48h-7.36v-47.22Z"/>
  <path class="st0" d="M153.61,75.67c0-10.03,7.22-17.12,16.79-17.12,4.41,0,8.16,2.07,9.56,3.88v-3.48h7.49v33.44h-7.49v-3.48c-1.4,1.81-5.08,3.88-9.56,3.88-9.56,0-16.79-7.09-16.79-17.12ZM180.23,75.67c0-6.15-4.15-10.03-9.56-10.03s-9.83,3.88-9.83,10.03,4.28,10.03,9.83,10.03,9.56-3.88,9.56-10.03Z"/>
  <path class="st0" d="M117.65,75.67c0-9.5,7.49-17.12,16.99-17.12s16.99,7.62,16.99,17.12c0,.87-.07,1.74-.2,2.54h-26.02c.8,4.21,4.61,7.62,9.43,7.62,3.41,0,6.15-1.07,7.56-3.21h8.76c-2.27,6.09-8.76,10.17-16.32,10.17-9.7,0-17.19-7.62-17.19-17.12ZM143.6,71.93c-1-3.88-4.61-6.55-8.96-6.55s-7.96,2.68-8.96,6.55h17.92Z"/>
  <path class="st0" d="M100.22,58.95h7.36v4.41c1.14-2.68,3.81-4.82,7.82-4.82,1.61,0,2.41.2,2.94.4v7.76c-.74-.33-1.87-.53-3.08-.53-4.41,0-7.69,2.94-7.69,8.29v17.92h-7.36v-33.44Z"/>
  <path class="st0" d="M90.55,67.89v.41c0,8.95-7.28,16.23-16.23,16.23s-16.23-7.28-16.23-16.23,7.28-16.23,16.23-16.23c4.91,0,9.51,2.19,12.61,6.02l.28.35,5.6-5.6-.25-.29c-4.58-5.31-11.23-8.35-18.24-8.35-13.29,0-24.09,10.81-24.09,24.09s10.81,24.09,24.09,24.09,24.09-10.81,24.09-24.09v-.41h-7.87Z"/>
</svg>